<svg width="20" height="20" viewBox="0 0 20 20" fill="none" xmlns="http://www.w3.org/2000/svg">
<g clip-path="url(#clip0_2675_229)">
<path d="M9.87879 1.77895C12.5183 1.77895 12.8308 1.79053 13.8689 1.83684C14.8336 1.87928 15.3546 2.04136 15.7019 2.17642C16.1611 2.35393 16.4929 2.57003 16.8364 2.91347C17.1837 3.26077 17.3959 3.58878 17.5734 4.04799C17.7085 4.39529 17.8706 4.9201 17.913 5.88097C17.9593 6.92287 17.9709 7.23544 17.9709 9.87107C17.9709 12.5106 17.9593 12.8231 17.913 13.8612C17.8706 14.8259 17.7085 15.3469 17.5734 15.6942C17.3959 16.1534 17.1798 16.4852 16.8364 16.8287C16.4891 17.176 16.1611 17.3882 15.7019 17.5657C15.3546 17.7008 14.8298 17.8629 13.8689 17.9053C12.827 17.9516 12.5144 17.9632 9.87879 17.9632C7.2393 17.9632 6.92673 17.9516 5.88868 17.9053C4.92396 17.8629 4.40301 17.7008 4.05571 17.5657C3.5965 17.3882 3.26463 17.1721 2.92119 16.8287C2.57389 16.4814 2.36165 16.1534 2.18414 15.6942C2.04908 15.3469 1.887 14.822 1.84455 13.8612C1.79825 12.8193 1.78667 12.5067 1.78667 9.87107C1.78667 7.23158 1.79825 6.91901 1.84455 5.88097C1.887 4.91624 2.04908 4.39529 2.18414 4.04799C2.36165 3.58878 2.57775 3.25691 2.92119 2.91347C3.26849 2.56617 3.5965 2.35393 4.05571 2.17642C4.40301 2.04136 4.92782 1.87928 5.88868 1.83684C6.92673 1.79053 7.2393 1.77895 9.87879 1.77895ZM9.87879 0C7.19685 0 6.86113 0.0115767 5.80765 0.0578835C4.75803 0.10419 4.03641 0.273982 3.41127 0.517093C2.75911 0.77178 2.20729 1.1075 1.65933 1.65933C1.1075 2.20729 0.77178 2.75911 0.517093 3.40741C0.273982 4.03641 0.10419 4.75417 0.0578835 5.80379C0.0115767 6.86113 0 7.19685 0 9.87879C0 12.5607 0.0115767 12.8964 0.0578835 13.9499C0.10419 14.9995 0.273982 15.7212 0.517093 16.3463C0.77178 16.9985 1.1075 17.5503 1.65933 18.0982C2.20729 18.6462 2.75911 18.9858 3.40741 19.2366C4.03641 19.4797 4.75417 19.6495 5.80379 19.6958C6.85727 19.7421 7.19299 19.7537 9.87493 19.7537C12.5569 19.7537 12.8926 19.7421 13.9461 19.6958C14.9957 19.6495 15.7173 19.4797 16.3424 19.2366C16.9907 18.9858 17.5426 18.6462 18.0905 18.0982C18.6385 17.5503 18.9781 16.9985 19.2289 16.3502C19.472 15.7212 19.6418 15.0034 19.6881 13.9538C19.7344 12.9003 19.746 12.5646 19.746 9.88265C19.746 7.20071 19.7344 6.86499 19.6881 5.81151C19.6418 4.76188 19.472 4.04027 19.2289 3.41513C18.9858 2.75911 18.6501 2.20729 18.0982 1.65933C17.5503 1.11136 16.9985 0.77178 16.3502 0.520952C15.7212 0.277841 15.0034 0.108049 13.9538 0.0617424C12.8964 0.0115767 12.5607 0 9.87879 0Z" fill="white"/>
<path d="M9.8789 4.8042C7.07734 4.8042 4.80444 7.07709 4.80444 9.87865C4.80444 12.6802 7.07734 14.9531 9.8789 14.9531C12.6805 14.9531 14.9534 12.6802 14.9534 9.87865C14.9534 7.07709 12.6805 4.8042 9.8789 4.8042ZM9.8789 13.1703C8.06136 13.1703 6.58726 11.6962 6.58726 9.87865C6.58726 8.06111 8.06136 6.58701 9.8789 6.58701C11.6964 6.58701 13.1705 8.06111 13.1705 9.87865C13.1705 11.6962 11.6964 13.1703 9.8789 13.1703Z" fill="white"/>
<path d="M16.3386 4.60363C16.3386 5.25964 15.8061 5.78831 15.1539 5.78831C14.4979 5.78831 13.9692 5.25578 13.9692 4.60363C13.9692 3.94762 14.5018 3.41895 15.1539 3.41895C15.8061 3.41895 16.3386 3.95147 16.3386 4.60363Z" fill="white"/>
</g>
<defs>
<clipPath id="clip0_2675_229">
<rect width="19.7576" height="19.7576" fill="white"/>
</clipPath>
</defs>
</svg>
