<svg width="20" height="20" viewBox="0 0 20 20" fill="none" xmlns="http://www.w3.org/2000/svg">
<g clip-path="url(#clip0_2675_228)">
<path d="M18.2951 0H1.45866C0.652154 0 0 0.636719 0 1.42393V18.3298C0 19.117 0.652154 19.7576 1.45866 19.7576H18.2951C19.1016 19.7576 19.7576 19.117 19.7576 18.3336V1.42393C19.7576 0.636719 19.1016 0 18.2951 0ZM5.86167 16.8364H2.92891V7.40523H5.86167V16.8364ZM4.39529 6.12022C3.45372 6.12022 2.69351 5.36001 2.69351 4.4223C2.69351 3.48459 3.45372 2.72438 4.39529 2.72438C5.333 2.72438 6.09321 3.48459 6.09321 4.4223C6.09321 5.35616 5.333 6.12022 4.39529 6.12022ZM16.8364 16.8364H13.9075V12.252C13.9075 11.1599 13.8882 9.75144 12.3832 9.75144C10.8589 9.75144 10.6274 10.9438 10.6274 12.1748V16.8364H7.70237V7.40523H10.5116V8.69411H10.5502C10.94 7.9532 11.897 7.16984 13.3209 7.16984C16.2884 7.16984 16.8364 9.12244 16.8364 11.6616V16.8364Z" fill="white"/>
</g>
<defs>
<clipPath id="clip0_2675_228">
<rect width="19.7576" height="19.7576" fill="white"/>
</clipPath>
</defs>
</svg>
