<svg width="61" height="58" viewBox="0 0 61 58" fill="none" xmlns="http://www.w3.org/2000/svg">
<path d="M6.05838 36.2699H5.201V33.9746H1.06387V36.2699H0.210205V31.1089H1.06387V33.2023H5.201V31.1089H6.05838V36.2699Z" fill="white"/>
<path d="M8.64079 31.1089H7.78247V36.2699H8.64079V31.1089Z" fill="white"/>
<path d="M16.6976 33.61C16.6976 34.4525 16.3952 35.1265 15.796 35.6462C15.1931 36.1602 14.3971 36.4212 13.4025 36.4212C12.4939 36.4212 11.7361 36.1895 11.1286 35.729C10.4363 35.2056 10.0925 34.5232 10.0925 33.6821C10.0925 32.8563 10.44 32.1757 11.142 31.643C11.7529 31.1778 12.534 30.9434 13.4746 30.9434C14.6093 30.9434 15.5397 31.3597 16.2701 32.191L15.4708 32.5916C14.934 32.0185 14.2418 31.7291 13.4025 31.7291C12.7447 31.7291 12.1976 31.8901 11.7529 32.2134C11.2393 32.5907 10.9843 33.0791 10.9843 33.6816C10.9843 34.2631 11.2048 34.733 11.6463 35.0935C12.0883 35.4568 12.6749 35.6359 13.4025 35.6359C14.5437 35.6359 15.2848 35.1926 15.6267 34.3022H13.2248V33.5318H16.6976V33.61Z" fill="white"/>
<path d="M24.0024 36.2699H23.1446V33.9746H19.0084V36.2699H18.1528V31.1089H19.0084V33.2023H23.1446V31.1089H24.0024V36.2699Z" fill="white"/>
<path d="M30.912 33.6111C31.5 33.8093 31.7954 34.2461 31.7954 34.9142C31.7954 35.8162 31.1432 36.2698 29.8397 36.2698H25.7253V31.106H29.8978C30.4198 31.106 30.832 31.2358 31.132 31.4912C31.4326 31.7484 31.5819 32.0927 31.5819 32.5188C31.5819 32.9905 31.3572 33.3567 30.912 33.6111ZM29.9132 33.2692C30.1523 33.2692 30.3495 33.2003 30.5073 33.065C30.6687 32.9277 30.7487 32.7607 30.7487 32.5653C30.7487 32.3564 30.6752 32.1871 30.5324 32.0648C30.3933 31.9392 30.1946 31.8777 29.9471 31.8777H26.5809V33.2697H29.9132V33.2692ZM29.8476 35.4999C30.5603 35.4999 30.9176 35.2654 30.9176 34.7956C30.9176 34.2894 30.6087 34.0368 29.9839 34.0368H26.5813V35.4999H29.8476Z" fill="white"/>
<path d="M38.6724 36.2699H33.2666V31.1089H38.4709V31.8774H34.1207V33.2023H37.1455V33.9746H34.1207V35.5H38.6724V36.2699Z" fill="white"/>
<path d="M45.818 36.2699H44.8224L43.4235 34.3021H40.8183V36.2699H39.9609V31.1089H44.0339C44.5763 31.1089 45.0015 31.2545 45.3095 31.5443C45.6198 31.8388 45.7756 32.2347 45.7756 32.7339C45.7756 33.1716 45.6477 33.5224 45.3955 33.788C45.1629 34.0369 44.8419 34.1923 44.4353 34.2607L45.818 36.2699ZM43.9055 33.5312C44.5656 33.5312 44.8978 33.267 44.8978 32.7334C44.8978 32.1626 44.5391 31.8774 43.8255 31.8774H40.8183V33.5312H43.9055Z" fill="white"/>
<path d="M53.0066 36.2699H52.012L50.6121 34.3021H48.0074V36.2699H47.1523V31.1089H51.2216C51.7663 31.1089 52.1906 31.2545 52.4986 31.5443C52.8098 31.8388 52.9642 32.2347 52.9642 32.7339C52.9642 33.1716 52.8372 33.5224 52.5851 33.788C52.3483 34.0369 52.0324 34.1923 51.623 34.2607L53.0066 36.2699ZM51.0927 33.5312C51.7561 33.5312 52.0859 33.267 52.0859 32.7334C52.0859 32.1626 51.7286 31.8774 51.0183 31.8774H48.0079V33.5312H51.0927Z" fill="white"/>
<path d="M60.0161 31.1089L57.1922 34.2309V36.2699H56.3372V34.2309L53.512 31.1089H54.5819L56.7703 33.5173L58.9494 31.1089H60.0161Z" fill="white"/>
<path d="M60.0619 28.3771L59.4753 28.8107H51.3675C51.7518 28.4553 52.9953 27.0587 52.7478 24.0218C52.6841 23.2272 52.4189 22.4796 52.0239 21.7897C52.2738 22.307 52.4398 22.8648 52.4952 23.4677C52.8125 26.9154 51.4903 28.3613 50.9363 28.8102H41.4255L41.4139 27.8547V17.848C41.7995 17.9805 42.1768 18.1178 42.542 18.2643C43.9702 19.0933 45.4347 20.3447 45.7152 22.1102C45.8873 23.1993 45.9301 24.5465 45.7189 25.4202C45.2025 27.5574 43.6785 28.5985 43.6785 28.5985H50.0631C50.0631 28.5985 52.3394 27.6765 51.8225 22.8988C51.4834 19.7637 48.0152 17.8791 46.0311 17.1362C44.5675 16.5537 43.0184 16.0746 41.4139 15.6866V14.7129C41.4236 14.6622 41.4301 14.611 41.4301 14.5589C41.4301 13.02 45.4128 12.5008 45.4128 12.5008V11.8835L44.4768 11.2959C44.4768 11.2959 44.0791 11.8835 43.7092 11.8835H42.4708C40.9645 11.8835 38.49 12.2808 38.49 12.2808C38.49 12.2808 36.0904 11.8835 34.3594 11.8835C33.4043 11.8835 30.8219 11.8681 30.8219 11.8681L31.6705 12.4427C31.6705 12.4427 35.6476 12.6771 35.6476 14.5589C35.6476 14.6212 35.6545 14.6757 35.6652 14.7348C32.3022 14.4003 28.8401 14.4291 25.4901 14.7943V14.711C25.499 14.6622 25.505 14.611 25.505 14.5589C25.505 13.02 29.4858 12.5008 29.4858 12.5008V11.8835L28.547 11.2959C28.547 11.2959 28.3391 11.8676 28.2832 11.8676C27.5836 11.8676 27.0588 11.883 26.5457 11.883C25.0365 11.883 22.4337 12.2803 22.4337 12.2803C22.4337 12.2803 20.1644 11.883 18.437 11.883C17.4782 11.883 14.8907 11.8676 14.8907 11.8676L15.7444 12.4422C15.7444 12.4422 19.7229 12.6766 19.7229 14.5584C19.7229 14.624 19.7294 14.6836 19.7382 14.7431V15.7922C18.8864 16.0122 17.5094 16.3858 16.846 16.6528C15.4099 17.2357 13.2811 17.8526 13.2811 17.8526C13.2811 17.8526 10.0744 17.9242 8.28565 17.9242H5.4981V18.4867C5.4981 18.4867 9.61755 18.7239 9.61755 20.6029C9.61755 20.6662 9.62453 20.7267 9.63523 20.7872V28.5976H15.5867V20.7546C15.6006 20.7071 15.602 20.6527 15.603 20.6029C15.6379 18.7281 17.9839 17.7568 19.7382 17.2515V17.7447C18.0858 18.2932 16.2194 19.251 16.1905 20.9332C16.1863 20.9844 16.1863 21.0374 16.1742 21.0863V28.8102H0.0834961L0.937625 29.2791H60.9993V28.8102L60.0619 28.3771ZM41.4139 17.6926C41.459 17.707 41.5013 17.7205 41.5427 17.7372C41.8367 17.8773 42.147 18.0392 42.4606 18.2173C42.3513 18.161 42.234 18.102 42.1284 18.0517C41.8949 17.9573 41.6558 17.8689 41.4139 17.78V17.6926ZM19.7378 27.8551L19.7271 28.8107H16.4515V21.3203C16.4631 21.2719 16.4664 21.2212 16.4664 21.1691C16.4664 19.5162 18.1374 18.6062 19.7378 18.0726V27.8551ZM35.6652 27.7258C35.6652 27.7258 33.6206 27.7519 30.4702 27.7519C27.3189 27.7519 25.4901 27.7258 25.4901 27.7258V16.7989C29.1132 16.2416 32.5595 16.2011 35.6652 16.5742V27.7258ZM35.6652 16.3965C32.5716 15.9787 29.1248 15.9787 25.4901 16.4951V16.1071C29.1416 15.6452 32.5883 15.7108 35.6652 16.1811V16.3965Z" fill="white"/>
<path d="M59.5304 38.9846H50.309C50.1619 38.8837 50.0633 38.839 50.0633 38.839H43.6788C43.6788 38.839 43.7532 38.8944 43.8639 38.9846H15.5865V38.839H9.635V38.9846H0L0.936011 39.4526H9.635V46.656C9.6243 46.7141 9.61733 46.7741 9.61733 46.8397C9.61733 48.7159 5.49788 48.9569 5.49788 48.9569V49.5203H8.28449C10.0746 49.5203 13.2809 49.5891 13.2809 49.5891C13.2809 49.5891 15.4097 50.2069 16.8458 50.7875C17.5083 51.0555 18.8862 51.4281 19.7413 51.6463V52.0134C18.9313 51.7942 17.9577 51.5165 17.4338 51.3039C15.9954 50.7168 13.8666 50.2944 13.8666 50.2944C13.8666 50.2944 10.6599 50.2228 8.87113 50.2228H6.60415L6.6423 50.5973L13.7568 50.6066C13.7568 50.6066 16.4592 51.0373 17.8962 51.6226C18.3214 51.7952 19.0486 51.998 19.7413 52.1715V53.8714C19.7292 53.9314 19.7227 53.9914 19.7227 54.0552C19.7227 55.937 14.8905 56.1524 14.8905 56.1524L15.7442 57.0818H18.4368C20.1642 57.0818 22.4325 56.6785 22.4325 56.6785C22.4325 56.6785 25.0372 57.0818 26.5455 57.0818H29.4856V56.4631L28.5468 55.5299L28.0876 55.8797C28.0876 55.8797 25.5048 55.2103 25.5048 54.0552C25.5048 54.0017 25.5006 53.9514 25.4899 53.9045V53.2783C28.8497 53.7244 32.2941 53.8123 35.666 53.5327V53.8719C35.6543 53.9319 35.6473 53.9919 35.6473 54.0556C35.6473 55.9374 30.7324 56.1491 30.7324 56.1491L31.6707 57.0823H34.3587C36.0907 57.0823 38.4879 56.679 38.4879 56.679C38.4879 56.679 40.9656 57.0823 42.4711 57.0823H45.4107V56.4636L44.4757 55.5304C44.4757 55.5304 44.0644 55.7695 43.93 55.743C42.7609 55.4922 41.4313 55.1349 41.4313 54.0556C41.4313 54.0021 41.4257 53.9519 41.4127 53.904V52.6721C43.1996 52.2776 44.9404 51.778 46.5961 51.1537C49.9168 49.9041 52.2326 47.6618 52.5718 45.3338C53.1965 41.0404 51.1194 39.5168 51.1194 39.5168H51.0128C51.639 40.0137 52.7997 41.4442 52.4103 45.0194C52.1037 47.7953 48.8575 49.9785 46.8715 50.7257C45.1665 51.41 43.3294 51.9534 41.4132 52.3767V51.757C43.0191 51.3709 44.5706 50.8894 46.0318 50.307C48.0164 49.5645 51.4836 47.6785 51.8218 44.5435C52.1368 41.6475 51.4245 40.1746 50.816 39.4545H61V38.9865L60.0617 38.5469L59.5304 38.9846ZM30.4705 40.8613C33.6209 40.8613 35.6664 40.8878 35.6664 40.8878V51.2616C32.5886 51.7352 29.1386 51.7984 25.4904 51.336V40.8878C25.4899 40.8873 27.3173 40.8613 30.4705 40.8613ZM15.6032 46.8397C15.6023 46.7853 15.6009 46.736 15.5869 46.6871V39.4526H16.1745V47.1761C16.1852 47.2235 16.1866 47.2752 16.1884 47.3305C16.2005 47.9646 16.4792 48.4936 16.9021 48.9369C16.1577 48.4098 15.6186 47.7283 15.6032 46.8397ZM17.2463 49.163C16.81 48.7197 16.5174 48.1963 16.5039 47.5645C16.5039 47.5083 16.5039 47.4589 16.4908 47.4101V39.4526H19.7538L19.7417 40.7585V50.1897C18.9379 49.959 18.0191 49.6291 17.2463 49.163ZM35.6664 53.2504C32.2806 53.5467 28.8143 53.4895 25.4904 53.0968V52.6479C28.8404 53.0159 32.3025 53.0433 35.6664 52.7098V53.2504ZM45.7192 42.0215C45.9304 42.8947 45.8876 44.2448 45.7155 45.3315C45.367 47.5166 43.2117 48.9276 41.542 49.7036C41.4992 49.7199 41.4564 49.7352 41.4127 49.7501V40.7585L41.4271 39.4526H44.3449C44.8232 39.9741 45.4275 40.8176 45.7192 42.0215Z" fill="white"/>
<path d="M40.4923 28.3776L40.4761 27.2709V14.1263C40.4891 14.0802 40.4947 14.0263 40.4947 13.9751C40.4947 12.4357 44.4764 11.9151 44.4764 11.9151V11.2969H41.533C40.0281 11.2969 37.555 11.6979 37.555 11.6979C37.555 11.6979 35.1554 11.2969 33.4207 11.2969H30.7331V11.8589C30.7331 11.8589 34.7126 12.0966 34.7126 13.9751C34.7126 14.0398 34.7181 14.0988 34.7312 14.1584V27.1387C34.7312 27.1387 32.6833 27.1676 29.5315 27.1676C26.3797 27.1676 24.5546 27.1387 24.5546 27.1387V14.1263C24.5626 14.0802 24.5719 14.0263 24.5719 13.9751C24.5719 12.4357 28.548 11.9151 28.548 11.9151V11.2969H25.607C24.1034 11.2969 21.4973 11.6979 21.4973 11.6979C21.4973 11.6979 19.2294 11.2969 17.4983 11.2969H14.8103V11.8589C14.8103 11.8589 18.7874 12.0966 18.7874 13.9751C18.7874 14.0398 18.7944 14.0988 18.8051 14.1584V27.2713L18.7921 28.3781H0.0012207V28.8465H60.0629V28.3781H40.4923V28.3776Z" fill="white"/>
<path d="M0 39.0139H18.8136L18.8015 40.1704V53.2861C18.7936 53.3452 18.7862 53.4061 18.7862 53.4671C18.7862 55.3498 14.8091 55.5861 14.8091 55.5861V56.1476H17.498C19.2268 56.1476 21.4961 55.7443 21.4961 55.7443C21.4961 55.7443 24.1022 56.1476 25.6081 56.1476H28.5468V55.5289C28.5468 55.5289 24.5706 55.0074 24.5706 53.4671C24.5706 53.4163 24.5609 53.3642 24.5534 53.3182V40.302C24.5534 40.302 26.3789 40.2764 29.5303 40.2764C32.6816 40.2764 34.7276 40.302 34.7276 40.302V53.2861C34.7169 53.3452 34.7113 53.4061 34.7113 53.4671C34.7113 55.3498 30.7296 55.5861 30.7296 55.5861V56.1476H33.4218C35.1542 56.1476 37.5538 55.7443 37.5538 55.7443C37.5538 55.7443 40.0264 56.1476 41.5332 56.1476H44.4752V55.5289C44.4752 55.5289 40.4935 55.0074 40.4935 53.4671C40.4935 53.4163 40.4879 53.3642 40.4762 53.3182V40.1704L40.4911 39.0139H60.0612V38.5449H0V39.0139Z" fill="white"/>
<path fill-rule="evenodd" clip-rule="evenodd" d="M30.51 5.67094C30.8561 5.30947 31.1961 4.94705 31.545 4.58651C31.7935 4.17899 31.6818 3.08389 31.9023 2.78104C31.8037 2.27954 31.2729 2.20231 31.0263 1.8548C30.7974 1.53473 30.5002 1.25886 30.3071 0.926236C30.1229 0.612683 30.0098 0.321921 29.7898 0.0493067C29.734 0.00929845 29.7428 0.0186085 29.6377 0C29.4274 0.378217 29.4339 0.910886 29.2218 1.34167C28.9617 1.86969 28.2267 2.06972 28.0369 2.68008C27.4986 3.52165 28.3946 5.20153 28.8608 5.56812C29.0669 5.72629 29.2906 5.75699 29.4288 5.98029C29.6088 6.26361 29.3106 6.91816 29.6856 7.11216C29.7428 7.15542 29.6995 7.13263 29.7898 7.16659C29.9247 6.7893 29.9335 6.23663 30.1527 5.92959C30.2476 5.68908 30.3187 5.79794 30.51 5.67094ZM30.616 2.16323H30.7193V2.37026H30.616V2.16323ZM30.51 2.47306H30.6165C30.5932 2.57959 30.6011 2.57076 30.563 2.62612V2.67961H30.4606C30.4764 2.55959 30.4844 2.55075 30.51 2.47306ZM30.3066 2.67961C30.2638 2.61867 30.2638 2.59401 30.2545 2.47306C30.2936 2.534 30.2936 2.55959 30.3066 2.67961ZM30.2024 2.2144V2.42142H30.1522C30.1229 2.33768 30.1047 2.29861 30.0987 2.16276C30.1313 2.17951 30.1675 2.19951 30.2024 2.2144ZM29.2213 1.69988C29.4027 1.74361 29.3618 1.77152 29.4795 1.85433C29.4562 2.38607 29.1152 2.35025 28.9157 2.67916H28.7589C28.9343 2.35072 29.2064 2.20743 29.2213 1.69988ZM28.5012 2.73126H28.6054V2.83453H28.5012V2.73126ZM29.8921 5.87655C29.8396 5.78258 29.8261 5.7891 29.7889 5.67094C29.7498 5.58906 29.834 5.44018 29.9438 5.35924V5.2555C29.7749 5.30295 29.7233 5.33783 29.6367 5.46065C29.4911 5.43971 29.1874 5.38761 29.0664 5.30899C28.9994 5.2099 29.0017 4.99638 28.8603 4.84472C28.3467 4.27856 28.2402 4.00129 28.3435 3.0918C28.5281 3.15879 28.5802 3.26439 28.7589 3.34859C28.8575 3.1011 29.0613 2.85454 29.2753 2.57401C29.2902 2.55959 29.3078 2.54284 29.3241 2.52563V2.57401H29.4283C29.4158 2.75684 29.4134 2.79313 29.3241 2.88663V2.93735C29.6391 2.83826 29.7517 2.53028 29.8921 2.26697C29.9889 2.33489 29.9819 2.37025 30.0982 2.42142C30.0643 2.89547 29.0217 4.1376 28.7073 4.38137V4.48278C29.2543 4.28925 29.5939 3.42675 29.9945 3.04155V2.99037C30.1983 3.11551 29.9824 3.41 29.8396 3.50491V3.60725C30.0908 3.52258 30.2839 3.18856 30.3569 2.93781H30.4602C30.4406 3.12064 30.456 3.10668 30.3569 3.19414V3.45233C30.3732 3.43605 30.3932 3.41931 30.4104 3.4007C30.6081 3.25695 30.609 2.96526 30.7672 2.7815V2.73218H30.8737C30.8179 3.11598 30.6816 3.53281 30.4602 3.76263V3.91569C30.6686 3.77659 30.9733 3.42954 31.0775 3.19461H31.1803C31.1738 3.43652 31.1431 3.54026 31.0259 3.65842V3.96685H31.1305C31.1803 3.85474 31.2138 3.82217 31.2334 3.65842H31.3366C31.3529 3.67703 31.3729 3.69284 31.3878 3.71052C31.2924 4.34042 30.8933 5.05453 30.4606 5.35971C30.241 5.51788 30.0485 5.60673 29.9447 5.87702H29.8921V5.87655ZM29.8396 2.47306C29.8112 2.55586 29.7968 2.59727 29.7893 2.73171C29.8605 2.71543 29.9275 2.69636 29.9945 2.68008C29.9605 2.4926 30.0033 2.53633 29.8396 2.47306ZM29.7363 2.83453C29.7726 2.75684 29.8038 2.81035 29.7363 2.73126C29.6479 2.922 29.5516 3.03644 29.3781 3.1439V3.29602H29.479C29.5809 3.1439 29.6851 3.05039 29.7363 2.83453ZM29.1227 3.24578H29.0157C29.0692 3.28904 29.0296 3.26485 29.1227 3.29602V3.24578ZM28.8608 3.50491H28.9157C28.8459 3.37837 28.938 3.46722 28.8087 3.39976C28.7198 3.51374 28.6412 3.58818 28.5016 3.6575C28.483 3.7096 28.4667 3.7617 28.4491 3.81334H28.5016V3.86497C28.6854 3.8045 28.8017 3.69239 28.8608 3.50491ZM30.3569 3.60725C30.3374 3.49886 30.3462 3.50862 30.3066 3.45186C30.1047 3.7482 29.4855 4.58931 29.2213 4.79354V4.84472C29.8117 4.72702 29.9294 3.90964 30.3569 3.60725ZM28.9636 3.86544C28.9319 3.77612 28.9557 3.8166 28.9152 3.7617C28.8082 3.84777 28.7073 3.93382 28.6049 4.01896V4.1241C28.8454 4.07432 28.8147 3.98175 28.9636 3.86544ZM30.8737 3.91475C30.8254 3.7482 30.9012 3.83521 30.7672 3.7617C30.7002 3.87335 30.609 4.08456 30.5095 4.17434V4.32972H30.5621C30.6444 4.17015 30.7486 4.03245 30.8737 3.91475ZM30.0987 4.27808V4.38137C30.2992 4.31158 30.3299 4.1962 30.4602 4.07106C30.4141 3.90498 30.489 3.99337 30.3569 3.91475C30.288 4.05617 30.2192 4.18504 30.0987 4.27808ZM30.5625 4.58651V4.69072C30.7574 4.58977 30.8296 4.46742 30.9733 4.33019C30.9296 4.16317 31.004 4.24971 30.8737 4.17481C30.8133 4.34275 30.6816 4.47719 30.5625 4.58651ZM29.1227 4.43206C29.025 4.57116 28.9222 4.61304 28.8608 4.79354C29.0724 4.75772 29.1152 4.72096 29.1725 4.53488H29.2213C29.1543 4.40927 29.2478 4.49859 29.1227 4.43206ZM30.048 4.48278H29.9438C29.8921 4.55163 29.8391 4.62049 29.7889 4.69027C29.8805 4.76098 30.0271 4.51441 30.048 4.48278ZM30.4109 4.53488V4.48278C30.102 4.54698 29.9768 4.80052 29.7368 4.94707V5.10291C30.0987 5.03173 30.1555 4.71352 30.4109 4.53488ZM30.2024 4.94707V5.04894C30.2541 5.03406 30.3066 5.01638 30.3569 4.9987C30.3732 4.96427 30.3932 4.93077 30.4104 4.89728C30.3569 4.88053 30.3062 4.86192 30.2541 4.84517C30.2201 4.9331 30.2406 4.89589 30.2024 4.94707ZM29.3786 5.20572H29.4283C29.3967 5.11594 29.4176 5.15594 29.3786 5.10291V5.20572ZM28.3435 6.13335C28.1736 6.08357 28.0015 6.02868 27.8313 5.97984C27.133 5.65186 26.3775 5.1364 25.3549 5.15315C25.2572 5.22759 25.1214 5.19223 24.9953 5.25597C24.2947 5.62255 23.6578 6.33851 22.573 6.33851C22.5544 6.35666 22.5399 6.37433 22.5181 6.39201C22.5771 7.14751 23.5695 7.00702 24.17 7.2159C24.6185 7.37128 25.4624 8.18354 26.1281 7.98815C26.3793 7.91511 26.8706 7.78206 27.1078 7.62947C27.7084 7.24381 27.875 6.42922 28.7073 7.2159C28.9803 7.19078 28.9836 7.10378 29.0664 6.90885C28.8277 6.67253 28.6286 6.31618 28.3435 6.13335ZM26.9543 6.08311C26.9241 6.24267 26.9455 6.20685 26.8515 6.28733V6.33758C27.0399 6.30827 27.1548 6.23895 27.2646 6.13288H27.4195V6.2357C27.0925 6.3948 26.7068 6.71626 26.3328 6.75348C26.3537 6.53716 26.3886 6.45481 26.3328 6.28733C26.5063 6.21336 26.5491 6.25337 26.5929 6.02821C26.7152 6.04542 26.8348 6.0645 26.9543 6.08311ZM26.2309 5.87655C26.3328 5.86027 26.4379 5.84167 26.5436 5.82539V6.02914H26.2309V5.87655ZM25.5615 5.67094C25.762 5.67466 25.8234 5.6821 25.923 5.77281H26.0272C25.9932 5.8077 25.956 5.84166 25.923 5.87702C25.9899 6.03612 26.0323 6.01984 26.1816 6.08358C26.0951 6.18499 26.0109 6.2878 25.923 6.39201C25.5643 6.37805 25.5996 6.27431 25.3047 6.23617C25.408 5.90819 25.661 5.95425 25.5615 5.67094ZM24.9441 7.11122C24.8376 7.09261 24.8455 7.101 24.7897 7.06052H24.6841V7.00981C24.785 6.95352 24.9121 6.8842 24.9953 6.80279C25.0851 6.83489 25.0446 6.81349 25.1 6.85489H25.1484C25.0823 6.94003 25.0097 7.02655 24.9441 7.11122ZM25.4066 7.06052C25.3531 7.101 25.3596 7.09261 25.253 7.11122V6.95724H25.4624C25.4243 7.04842 25.4494 7.00982 25.4066 7.06052ZM25.5615 6.80232C25.7192 6.72044 25.8899 6.60554 26.0272 6.49575C26.0658 6.55902 26.0327 6.54414 26.0272 6.69952C25.9332 6.74557 25.8378 6.7879 25.7694 6.85442H25.5615V6.80232ZM26.4919 7.42245C26.4384 7.46385 26.4789 7.44013 26.3863 7.47455C26.3514 7.40849 26.3305 7.36756 26.2835 7.31871V7.26753C26.4031 7.2559 26.4324 7.25869 26.4914 7.21543H26.6961C26.6385 7.37267 26.6478 7.36988 26.4919 7.42245ZM26.9543 7.06052C26.9381 7.08006 26.9227 7.0968 26.9032 7.11122H26.8022V7.00934H26.9543V7.06052ZM27.0567 6.90839C27.1451 6.94002 27.1055 6.9177 27.1599 6.95724C27.073 6.92374 27.1125 6.94746 27.0567 6.90839ZM26.284 7.21543C26.1421 7.27451 25.7829 7.20892 25.7192 7.16612C25.6997 7.14751 25.682 7.13216 25.6666 7.11169C25.7499 7.0433 25.7257 7.08192 25.7699 6.95771C25.9337 6.93352 26.1425 7.03121 26.3868 6.95771C26.5929 6.89537 27.514 6.39201 27.6247 6.23617H27.7298C27.6531 6.42504 26.5119 7.12192 26.284 7.21543ZM36.2865 6.18452C35.8031 5.5816 34.5424 5.12244 33.5524 5.15268C33.2314 5.37971 32.4913 5.51182 32.1098 5.71977C31.9516 5.8077 31.7088 5.95983 31.5441 6.08311C31.3869 6.25477 31.2324 6.42457 31.077 6.59577C30.9352 6.6795 30.8137 6.63205 30.6644 6.69997C30.476 6.78883 30.2685 6.96283 30.0475 7.06052C30.0759 7.22521 30.0926 7.21265 30.1517 7.31918C30.4913 7.39455 30.9114 7.29731 31.3357 7.42292C31.8223 7.56574 32.9197 8.17191 33.6059 7.98815C34.7759 7.67692 35.3723 6.7479 36.7503 6.65113C36.7633 6.63253 36.7843 6.61391 36.8015 6.59623C36.7284 6.27384 36.4512 6.392 36.2865 6.18452ZM31.7507 6.54507V6.59531H31.6455C31.6925 6.48552 31.6902 6.5232 31.7507 6.44272H31.8009C31.8228 6.54414 31.7767 6.50971 31.7507 6.54507ZM34.7396 5.82539H34.842C34.8583 5.84167 34.8746 5.86027 34.8946 5.87655C34.8178 6.00356 34.9085 5.93704 34.7396 5.97984V5.82539ZM33.2942 5.71977C33.4947 5.69046 33.8869 5.59696 34.0679 5.71977C34.2158 5.72582 34.2898 5.74164 34.3796 5.77235V5.82492C34.2391 5.85516 34.1088 5.95192 34.0167 5.97937C33.6366 6.08311 33.5506 5.74675 33.244 6.02821H33.1393C33.1989 6.07147 33.2282 6.07147 33.3454 6.08264V6.18406C33.1779 6.27245 33.1119 6.3599 32.8839 6.39107C32.9258 6.0403 33.1282 5.93749 33.2942 5.71977ZM33.6566 6.02868C33.5683 6.08357 33.5385 6.08497 33.4487 6.02868H33.6566ZM33.3989 6.44317C33.3091 6.40968 33.3464 6.43341 33.2938 6.39201C33.385 6.42504 33.3454 6.40038 33.3989 6.44317ZM32.9332 6.65067C32.8462 6.6944 32.8672 6.69347 32.7797 6.65067H32.9332ZM32.6769 6.13335H32.8327C32.7262 6.25524 32.6988 6.20685 32.6769 6.44317H32.368C32.4676 6.33804 32.5736 6.2357 32.6769 6.13335ZM32.4192 6.95724C32.2778 6.92374 32.3322 6.99027 32.3173 6.85442H32.4192V6.95724ZM33.5036 7.52433C33.4868 7.54294 33.4696 7.5583 33.4487 7.57737H33.3454V7.47455H33.5036V7.52433ZM34.1205 7.42245V7.47455C33.9944 7.40477 34.0856 7.49968 34.0162 7.37221H33.966C34.0135 7.26056 34.0097 7.29359 34.0679 7.21497H34.274C34.227 7.36989 34.2554 7.35639 34.1205 7.42245ZM34.842 6.69997C34.7741 6.71672 34.7024 6.73579 34.6373 6.75394V6.90839H34.7904C34.6964 6.98189 34.5033 7.15077 34.3247 7.11169C34.2819 7.02563 34.2786 6.96189 34.1209 7.00981C33.9762 7.05261 33.8213 7.18798 33.6069 7.21543V7.06052C33.3529 7.10007 33.0863 7.2252 32.9342 7.37268H32.7271V7.31918C33.0002 7.18706 33.2072 7.00562 33.4496 6.85489V6.80279C33.1296 6.87862 32.8211 7.0126 32.6262 7.2159H32.5229V7.11169C32.8704 6.90839 33.3245 6.72091 33.6069 6.44317H33.7069C33.665 6.40689 33.5929 6.37526 33.5534 6.33804C33.5338 6.32223 33.5171 6.30408 33.5045 6.2878C33.6273 6.22732 33.805 6.16266 33.9153 6.08358H34.0177C33.9628 6.20313 33.919 6.225 33.8116 6.2878C33.8818 6.34502 33.9628 6.36875 34.0693 6.39201V6.54552C34.1749 6.52645 34.2754 6.51157 34.381 6.49622C34.3982 6.51157 34.4145 6.52645 34.4294 6.54552C34.381 6.59576 34.3261 6.65113 34.2758 6.69997H34.2256V6.75394C34.4294 6.71672 34.6392 6.68323 34.8439 6.65067V6.69997H34.842ZM35.0481 6.54507C34.7331 6.48552 34.5554 6.34456 34.173 6.33804C34.2312 6.22453 34.2451 6.26128 34.3242 6.18452H34.3791C34.3326 6.07426 34.3326 6.11148 34.2735 6.02868C34.427 6.0524 34.4489 6.05659 34.5312 6.13335H34.9425C34.8722 6.23291 34.8778 6.24268 34.7392 6.2878C34.8215 6.38596 34.896 6.41247 35.0476 6.44317V6.54507H35.0481ZM35.3068 6.75394C35.2663 6.69671 35.2737 6.70649 35.2532 6.59577H35.4063C35.3579 6.71021 35.3603 6.67252 35.3068 6.75394ZM33.7064 6.59577C33.6483 6.67764 33.6492 6.63856 33.6064 6.75394H33.5036C33.6273 6.83163 33.7162 6.78883 33.8102 6.69997H33.8618C33.786 6.5739 33.8772 6.63857 33.7064 6.59577ZM33.9144 6.90839C34.0656 6.8842 34.0879 6.88234 34.1735 6.80232H34.2237V6.75394H33.966C33.9474 6.80232 33.932 6.85489 33.9144 6.90839Z" fill="white"/>
<path fill-rule="evenodd" clip-rule="evenodd" d="M29.067 6.23341C29.1 6.21154 28.8869 5.80215 28.8018 5.70167C28.6134 5.48023 28.3394 5.35091 28.1082 5.16808C27.8076 4.93129 27.6094 4.51259 27.3647 4.21114C27.3471 4.19113 27.3275 4.17484 27.3089 4.15577C27.2726 4.2637 27.2926 4.31953 27.2573 4.36884C27.2401 4.38838 27.2215 4.40373 27.2029 4.42374V4.36884H27.0973C27.181 4.19206 27.2661 4.0004 27.3089 3.78454C27.1828 3.63056 27.1652 3.41143 27.0447 3.25139C26.9735 3.15928 26.8474 3.14534 26.7763 3.03834C26.5288 3.0202 26.2789 3.00112 26.0329 2.98438C25.8189 3.17232 25.5551 3.15604 25.4416 3.46354C25.0615 4.01389 25.6193 4.5019 25.8696 4.84941C26.0226 4.84615 26.1608 4.84615 26.2431 4.9043C26.6302 4.89546 26.8902 4.71123 27.0447 4.47676C27.1052 4.57679 27.0219 4.67588 27.0447 4.7438C27.094 4.9043 27.5434 5.01456 27.683 5.11551C28.1649 5.4607 28.5529 5.98871 29.0674 6.28691V6.23341H29.067ZM26.1357 4.15577C26.104 4.24927 26.1236 4.20974 26.0798 4.26091C26.1422 4.30325 26.1333 4.29534 26.2431 4.31487V4.36884C26.1524 4.4014 26.1943 4.37908 26.1361 4.42374C25.8947 4.38187 25.8491 4.29766 25.6044 4.26044C25.6449 4.01388 25.5551 3.66917 25.7109 3.46354C25.7644 3.41144 25.8189 3.357 25.87 3.30164H26.0333V3.35654C25.9324 3.40027 25.8905 3.43097 25.7649 3.46307C25.7463 3.51611 25.7263 3.56914 25.7114 3.62264C25.7263 3.64031 25.7463 3.65754 25.7649 3.67615C26.0073 3.63567 26.1366 3.54356 26.3515 3.46307C26.3687 3.47796 26.3873 3.49842 26.4041 3.5161C26.2515 3.67613 26.0528 3.7515 25.8193 3.8371V3.94224C25.9426 4.06041 25.91 4.11576 26.1357 4.15577ZM26.298 3.30211C26.4306 3.34165 26.4822 3.37886 26.5655 3.464C26.4329 3.4198 26.3794 3.38771 26.298 3.30211ZM33.8652 3.99667C33.8335 3.66916 33.6809 3.61706 33.5469 3.41144C33.2697 3.34864 33.0175 3.2942 32.6417 3.30211C32.4672 3.52494 32.2062 3.6431 32.1067 3.94317V4.31487C31.8941 4.49212 31.6805 4.67169 31.4665 4.84987C31.3493 5.0099 31.3228 5.22808 31.2004 5.383C31.2083 5.58816 31.1958 5.60769 31.306 5.70167C31.5396 5.86309 32.0369 4.81637 32.2136 4.6354C32.2606 4.58795 32.6351 4.90894 32.7463 5.0099C32.9929 5.00106 33.3143 4.97269 33.4413 4.90477C33.6586 4.82894 33.8042 4.6489 33.8656 4.42374C33.9368 4.32139 33.9391 4.09809 33.8652 3.99667ZM32.43 4.42374H32.3183V4.31487C32.3555 4.33395 32.3904 4.35023 32.43 4.36884V4.42374ZM33.4409 4.21114C33.3157 4.1474 33.3399 4.16042 33.2771 4.05017C33.1427 4.11669 33.1622 4.10413 33.1171 4.26044C32.9724 4.26044 32.8729 4.26045 32.797 4.21114H32.6938V3.99667C32.8552 3.96318 32.8208 3.98504 32.9064 3.88967H32.9566C32.8854 3.72964 32.838 3.78175 32.7966 3.56961C32.7449 3.58775 32.6933 3.60636 32.6407 3.6231V3.51657C32.7928 3.51331 32.9301 3.51332 33.0133 3.56914C33.3148 3.60357 33.2678 3.69754 33.44 3.83757C33.506 3.83757 33.4655 3.8706 33.5465 3.78407H33.5958C33.5474 3.92503 33.4883 4.06692 33.4409 4.21114ZM29.7071 7.83374C29.6885 7.7272 29.6722 7.62114 29.655 7.51368C29.5177 7.52438 29.4749 7.53647 29.3884 7.56764C29.4177 7.73186 29.3982 7.69651 29.494 7.78071C29.381 8.08496 29.0465 8.27337 28.9083 8.57855H28.8571V9.27404C28.9986 9.63272 29.7001 9.8816 30.1318 9.64434C30.3402 9.53176 30.4445 9.21496 30.6166 9.05818C30.5929 8.30966 30.1909 8.11472 29.7071 7.83374ZM29.9211 8.26033C30.0932 8.32918 30.1053 8.43154 30.2412 8.52691V8.6339C30.0848 8.53481 29.9648 8.48643 29.8709 8.41944C29.8267 8.47201 29.7894 8.56552 29.7592 8.6339C29.7076 8.65018 29.655 8.66833 29.6024 8.68833C29.5838 8.66833 29.5638 8.65018 29.5466 8.6339C29.6154 8.3906 29.7894 8.43153 29.9211 8.26033ZM30.1314 9.4336C29.9723 9.47268 29.8113 9.53781 29.7071 9.48664C29.5605 9.48664 29.4647 9.48291 29.3879 9.4336H29.3331C29.4363 9.34753 29.5461 9.31405 29.6545 9.38057C29.8922 9.37639 29.9439 9.34475 30.0797 9.27404C30.0983 9.11214 30.1123 8.95258 30.1309 8.79301C30.257 8.83302 30.2542 8.84977 30.3458 8.89954C30.2816 9.12517 30.1732 9.19122 30.1314 9.4336Z" fill="white"/>
</svg>
