<svg width="19" height="22" viewBox="0 0 19 22" fill="none" xmlns="http://www.w3.org/2000/svg">
<path d="M5.2079 10.8448C5.2079 10.275 4.81202 9.93457 4.11398 9.93457C3.82907 9.93457 3.63638 9.96231 3.53516 9.9893V11.8195C3.65512 11.8465 3.80208 11.8562 4.00376 11.8562C4.74829 11.8562 5.2079 11.4791 5.2079 10.8448ZM9.5311 9.95257C9.21844 9.95257 9.016 9.98031 8.89604 10.008V14.0628C9.016 14.0906 9.20869 14.0906 9.38339 14.0906C10.652 14.0996 11.4798 13.4008 11.4798 11.9207C11.4895 10.6334 10.7352 9.95257 9.5311 9.95257Z" fill="white"/>
<path d="M17.8138 7.57046H17.3055V5.11795C17.305 5.10237 17.3035 5.08684 17.301 5.07147C17.3018 4.97283 17.2669 4.87723 17.2027 4.8023L13.1217 0.141707L13.1187 0.138708C13.0669 0.0824685 13.0008 0.0412787 12.9275 0.0194941L12.905 0.0119962C12.8739 0.00422933 12.8419 0.000202296 12.8098 0H2.7801C2.32199 0 1.9501 0.372637 1.9501 0.829999V7.57046H1.44176C0.786455 7.57046 0.255615 8.10131 0.255615 8.75661V14.9257C0.255615 15.5803 0.787205 16.1119 1.44176 16.1119H1.9501V20.3354C1.9501 20.7927 2.32199 21.1654 2.7801 21.1654H16.4755C16.9328 21.1654 17.3055 20.7927 17.3055 20.3354V16.1119H17.8138C18.4691 16.1119 19 15.5803 19 14.9257V8.75661C19 8.10131 18.4684 7.57046 17.8138 7.57046ZM2.7801 0.829999H12.3945V5.07672C12.3945 5.30615 12.5804 5.49134 12.8098 5.49134H16.4762V7.57046H2.7801V0.829999ZM12.9695 11.8742C12.9695 13.0603 12.5377 13.8791 11.9386 14.3844C11.2863 14.9265 10.2936 15.1844 9.0797 15.1844C8.35317 15.1844 7.83883 15.1379 7.48868 15.0929V9.00553C8.00378 8.92306 8.67482 8.87732 9.38336 8.87732C10.5598 8.87732 11.323 9.08876 11.9206 9.53937C12.5646 10.017 12.9695 10.7802 12.9695 11.8742ZM2.14579 15.1207V9.00553C2.57766 8.93205 3.18498 8.87732 4.03972 8.87732C4.90421 8.87732 5.52053 9.04302 5.93365 9.37367C6.32878 9.68633 6.59495 10.2014 6.59495 10.808C6.59495 11.4153 6.39326 11.9296 6.02512 12.279C5.54677 12.7297 4.83898 12.9321 4.01123 12.9321C3.82754 12.9321 3.66184 12.9231 3.53363 12.9044V15.1207H2.14579ZM16.4755 20.1104H2.7801V16.1119H16.4755V20.1104ZM17.6781 10.0725H15.2961V11.4888H17.5214V12.6292H15.2961V15.1207H13.8902V8.92306H17.6781V10.0725Z" fill="white"/>
</svg>
