<svg width="20" height="20" viewBox="0 0 20 20" fill="none" xmlns="http://www.w3.org/2000/svg">
<g clip-path="url(#clip0_2675_230)">
<path d="M19.7576 9.87879C19.7576 4.42288 15.3347 0 9.87879 0C4.42288 0 0 4.42288 0 9.87879C0 14.8095 3.61251 18.8965 8.33523 19.6376V12.7344H5.82694V9.87879H8.33523V7.70237C8.33523 5.2265 9.8101 3.8589 12.0666 3.8589C13.1471 3.8589 14.2779 4.05185 14.2779 4.05185V6.48295H13.0323C11.8052 6.48295 11.4223 7.24451 11.4223 8.02652V9.87879H14.1622L13.7242 12.7344H11.4223V19.6376C16.1451 18.8965 19.7576 14.8095 19.7576 9.87879Z" fill="white"/>
</g>
<defs>
<clipPath id="clip0_2675_230">
<rect width="19.7576" height="19.7576" fill="white"/>
</clipPath>
</defs>
</svg>
