<svg width="20" height="15" viewBox="0 0 20 15" fill="none" xmlns="http://www.w3.org/2000/svg">
<path d="M19.5608 3.92708C19.5608 3.92708 19.3678 2.56489 18.7736 1.96676C18.0211 1.17954 17.1798 1.17568 16.7939 1.12937C14.031 0.928711 9.88265 0.928711 9.88265 0.928711H9.87493C9.87493 0.928711 5.72661 0.928711 2.96364 1.12937C2.57775 1.17568 1.73651 1.17954 0.98402 1.96676C0.389749 2.56489 0.200663 3.92708 0.200663 3.92708C0.200663 3.92708 0 5.52852 0 7.12611V8.62336C0 10.2209 0.196804 11.8224 0.196804 11.8224C0.196804 11.8224 0.389749 13.1846 0.980161 13.7827C1.73265 14.5699 2.72053 14.5429 3.16044 14.6278C4.74259 14.7783 9.87879 14.8246 9.87879 14.8246C9.87879 14.8246 14.031 14.8169 16.7939 14.6201C17.1798 14.5738 18.0211 14.5699 18.7736 13.7827C19.3678 13.1846 19.5608 11.8224 19.5608 11.8224C19.5608 11.8224 19.7576 10.2248 19.7576 8.62336V7.12611C19.7576 5.52852 19.5608 3.92708 19.5608 3.92708ZM7.83743 10.4409V4.88794L13.1743 7.67407L7.83743 10.4409Z" fill="white"/>
</svg>
